<svg width="53" height="53" viewBox="0 0 53 53" fill="none" xmlns="http://www.w3.org/2000/svg">
<path d="M24.9221 26.4614L25.2269 25.4753C25.2884 25.2767 25.4239 25.1093 25.6054 25.0078C25.7869 24.9063 26.0004 24.8784 26.2019 24.9299L27.3679 25.228M19.9114 14.9593C18.545 15.458 17.2924 16.2258 16.2279 17.2173C15.5252 17.8736 14.9192 18.6265 14.4281 19.4532M19.9114 14.9593C19.9114 14.9593 23.3079 6.93748 24.5644 6.93748C24.68 6.93748 24.7996 6.96104 24.9232 7.00815C26.6137 7.65078 28.9733 12.4937 30.39 15.8923M19.9114 14.9593C21.9647 14.2072 24.1801 14.0054 26.3355 14.374M14.4281 19.4532C10.6828 21.4628 6.02323 23.4691 6.07402 24.7389C6.077 24.7789 6.08216 24.8187 6.08948 24.8581M14.4281 19.4532C13.8683 20.4017 13.7281 22.3439 13.8242 24.3425C13.8242 24.3425 8.79469 23.8732 6.08948 24.8581M30.39 15.8923C31.5468 16.6078 32.5363 17.5635 33.2917 18.6947C36.0477 22.8552 35.8998 27.8062 32.8445 31.5582M30.39 15.8923C29.1493 15.1291 27.7724 14.6139 26.3355 14.3752C25.0392 12.9364 24.9221 7.00815 24.9221 7.00815M32.8445 31.5582C32.6105 31.846 32.3594 32.1272 32.0915 32.3996C29.5784 34.9524 26.1246 35.9539 22.8309 35.4603M32.8445 31.5582L46.9271 37.0912M6.08948 24.8581C6.3876 26.1588 10.5713 28.5361 14.9714 30.3304M14.9714 30.3304C15.4539 31.0613 16.027 31.7569 16.6862 32.3996C18.3616 34.0405 20.5117 35.1115 22.8309 35.4603M14.9714 30.3304C14.458 29.553 13.9467 26.9019 13.8231 24.3425M22.8309 35.4603C22.6984 38.2384 24.8338 46.0625 24.8338 46.0625M17.4679 24.8592C18.4893 27.0388 18.8448 26.7164 19.8319 26.3322C21.295 25.7635 20.6821 25.2876 20.0417 23.9372C19.0701 21.8923 18.4826 21.9784 17.6457 22.3583C16.8098 22.7381 16.6873 23.384 17.4679 24.8592ZM27.7057 20.3432C27.2906 19.568 26.7672 18.6935 27.5346 18.1536C28.7271 17.1665 28.8729 18.0377 29.7352 19.2037C30.7091 20.522 31.1739 20.8334 30.0366 21.6803C29.0208 22.4367 28.3373 21.5224 27.7057 20.3432Z" stroke="#0D99FF" stroke-width="0.5" stroke-linecap="round" stroke-linejoin="round"/>
</svg>
