<svg width="9" height="9" viewBox="0 0 9 9" fill="none" xmlns="http://www.w3.org/2000/svg">
<path fill-rule="evenodd" clip-rule="evenodd" d="M2.54025 2.4L2.84475 7.518C2.84933 7.59428 2.88285 7.66593 2.93846 7.71833C2.99407 7.77074 3.06759 7.79995 3.144 7.8H5.856C5.93241 7.79995 6.00593 7.77074 6.06154 7.71833C6.11715 7.66593 6.15067 7.59428 6.15525 7.518L6.45975 2.4H2.54025ZM6.91088 2.4L6.6045 7.54462C6.59313 7.73544 6.50932 7.91472 6.3702 8.04582C6.23108 8.17692 6.04716 8.24996 5.856 8.25H3.144C2.95284 8.24996 2.76892 8.17692 2.6298 8.04582C2.49068 7.91472 2.40687 7.73544 2.3955 7.54462L2.08913 2.4H1.3125V2.1375C1.3125 2.08777 1.33225 2.04008 1.36742 2.00492C1.40258 1.96975 1.45027 1.95 1.5 1.95H7.5C7.54973 1.95 7.59742 1.96975 7.63258 2.00492C7.66775 2.04008 7.6875 2.08777 7.6875 2.1375V2.4H6.91088ZM5.25 1.125C5.29973 1.125 5.34742 1.14475 5.38258 1.17992C5.41775 1.21508 5.4375 1.26277 5.4375 1.3125V1.575H3.5625V1.3125C3.5625 1.26277 3.58225 1.21508 3.61742 1.17992C3.65258 1.14475 3.70027 1.125 3.75 1.125H5.25ZM3.5625 3.375H4.0125L4.2 6.75H3.75L3.5625 3.375ZM4.9875 3.375H5.4375L5.25 6.75H4.8L4.9875 3.375Z" fill="white"/>
</svg>
